<svg width="251" height="77" viewBox="0 0 251 77" fill="none" xmlns="http://www.w3.org/2000/svg">
<rect width="251" height="77" fill="#242038"/>
<path d="M47.0447 57.132C45.5807 57.132 44.4767 56.892 43.7327 56.412C42.9887 55.932 42.6047 55.14 42.5807 54.036C42.5807 53.796 42.7127 53.676 42.9767 53.676C43.1927 53.676 43.5167 53.736 43.9487 53.856C44.4047 53.952 45.2567 54 46.5047 54C48.6167 54 50.5607 53.784 52.3367 53.352C54.1127 52.896 55.6487 52.296 56.9447 51.552C58.2647 50.784 59.2847 49.932 60.0047 48.996C60.7247 48.036 61.0847 47.04 61.0847 46.008C61.0847 45.072 60.7967 44.328 60.2207 43.776C59.6687 43.2 58.9247 42.768 57.9887 42.48C57.0767 42.168 56.0687 41.964 54.9647 41.868C53.8847 41.772 52.8167 41.724 51.7607 41.724C51.3047 41.724 50.8487 41.736 50.3927 41.76C49.9367 41.76 49.5047 41.76 49.0967 41.76C48.5687 43.584 48.0527 45.468 47.5487 47.412C47.0447 49.356 46.5167 51.264 45.9647 53.136C45.2447 53.136 44.6207 52.944 44.0927 52.56C43.5647 52.176 43.3007 51.708 43.3007 51.156C43.3007 50.94 43.3367 50.664 43.4087 50.328C43.5047 49.968 43.6367 49.548 43.8047 49.068C43.9487 48.612 44.1887 47.856 44.5247 46.8C44.8847 45.744 45.3047 44.496 45.7847 43.056C46.2647 41.616 46.7927 40.104 47.3687 38.52C47.9687 36.912 48.5807 35.34 49.2047 33.804C49.8527 32.268 50.4887 30.888 51.1127 29.664C50.1527 29.88 49.3607 30.132 48.7367 30.42C48.1127 30.708 47.6207 30.96 47.2607 31.176C46.9007 31.392 46.6247 31.5 46.4327 31.5C46.2887 31.5 46.0967 31.416 45.8567 31.248C45.6407 31.08 45.4367 30.888 45.2447 30.672C45.0767 30.456 44.9927 30.264 44.9927 30.096C46.2887 29.568 47.6327 29.1 49.0247 28.692C50.4167 28.284 52.0967 28.08 54.0647 28.08C54.9287 28.08 55.8767 28.152 56.9087 28.296C57.9407 28.416 58.9247 28.68 59.8607 29.088C60.7967 29.472 61.5647 30.06 62.1647 30.852C62.7887 31.62 63.1007 32.652 63.1007 33.948C63.1007 34.98 62.8727 35.88 62.4167 36.648C61.9847 37.392 61.3967 38.04 60.6527 38.592C59.9087 39.12 59.0927 39.564 58.2047 39.924C57.3167 40.26 56.4407 40.536 55.5767 40.752C57.0647 40.944 58.3007 41.256 59.2847 41.688C60.2927 42.096 61.0847 42.576 61.6607 43.128C62.2607 43.68 62.6807 44.256 62.9207 44.856C63.1847 45.432 63.3167 45.996 63.3167 46.548C63.3167 47.964 62.9447 49.236 62.2007 50.364C61.4567 51.492 60.4727 52.476 59.2487 53.316C58.0487 54.156 56.7167 54.852 55.2527 55.404C53.8127 55.98 52.3727 56.412 50.9327 56.7C49.4927 56.988 48.1967 57.132 47.0447 57.132ZM49.4567 40.392C50.8007 40.344 52.1207 40.188 53.4167 39.924C54.7127 39.66 55.8767 39.276 56.9087 38.772C57.9647 38.244 58.8047 37.572 59.4287 36.756C60.0527 35.916 60.3647 34.884 60.3647 33.66C60.3647 32.508 60.0527 31.62 59.4287 30.996C58.8047 30.372 57.9887 29.94 56.9807 29.7C55.9727 29.46 54.8927 29.34 53.7407 29.34C53.7167 29.34 53.6927 29.34 53.6687 29.34C53.6447 29.34 53.6207 29.34 53.5967 29.34C52.7807 30.948 52.0367 32.7 51.3647 34.596C50.6927 36.468 50.0567 38.4 49.4567 40.392ZM65.2028 55.152C64.0988 55.152 63.2828 54.816 62.7548 54.144C62.2268 53.496 61.9628 52.692 61.9628 51.732C61.9628 50.484 62.1788 49.32 62.6108 48.24C63.0668 47.16 63.6308 46.188 64.3028 45.324C64.9988 44.436 65.7428 43.68 66.5348 43.056C67.3268 42.432 68.0708 41.952 68.7668 41.616C69.4868 41.28 70.0748 41.112 70.5308 41.112C70.6508 41.112 70.8188 41.136 71.0348 41.184C71.2508 41.232 71.4068 41.352 71.5028 41.544C71.5748 41.496 71.6468 41.46 71.7188 41.436C71.8148 41.412 71.9108 41.4 72.0068 41.4C72.6788 41.4 73.1108 41.592 73.3028 41.976C73.5188 42.36 73.6268 42.78 73.6268 43.236C73.6268 43.644 73.5068 44.112 73.2668 44.64C73.0508 45.168 72.8228 45.756 72.5828 46.404C72.3668 47.028 72.2588 47.748 72.2588 48.564C72.2588 48.996 72.3788 49.332 72.6188 49.572C72.8828 49.788 73.1828 49.896 73.5188 49.896C74.4548 49.896 75.2228 49.692 75.8228 49.284C76.4228 48.852 76.9148 48.288 77.2988 47.592C77.6828 46.896 78.0068 46.14 78.2708 45.324C78.5348 44.484 78.7868 43.656 79.0268 42.84C78.8108 42.576 78.7028 42.276 78.7028 41.94C78.7028 41.412 78.8108 40.956 79.0268 40.572C79.2428 40.164 79.4828 39.852 79.7468 39.636C80.0348 39.396 80.2628 39.276 80.4308 39.276C80.8148 39.276 81.0428 39.42 81.1148 39.708C81.1868 39.996 81.2228 40.224 81.2228 40.392C81.2228 40.512 81.1508 40.728 81.0068 41.04C80.8868 41.352 80.8268 41.568 80.8268 41.688C80.8268 41.928 81.0188 42.18 81.4028 42.444C81.8108 42.684 82.2668 42.972 82.7708 43.308C83.2748 43.644 83.7188 44.076 84.1028 44.604C84.5108 45.108 84.7148 45.744 84.7148 46.512C84.7148 47.232 84.5708 47.952 84.2828 48.672C83.9948 49.392 83.7068 50.064 83.4188 50.688C83.1308 51.312 82.9868 51.852 82.9868 52.308C82.9868 52.668 83.0708 52.908 83.2388 53.028C83.4308 53.124 83.6468 53.172 83.8868 53.172C84.4388 53.172 85.0148 53.004 85.6148 52.668C86.2388 52.308 86.8388 51.852 87.4148 51.3C87.9908 50.748 88.5068 50.172 88.9628 49.572C89.4188 48.948 89.7548 48.384 89.9708 47.88L90.6908 48.384C90.2108 49.416 89.5748 50.436 88.7828 51.444C87.9908 52.452 87.0908 53.292 86.0828 53.964C85.0988 54.636 84.0668 54.972 82.9868 54.972C82.0988 54.972 81.3668 54.732 80.7908 54.252C80.2388 53.772 79.9628 53.16 79.9628 52.416C79.9628 51.72 80.1188 50.988 80.4308 50.22C80.7428 49.452 81.0548 48.708 81.3668 47.988C81.6788 47.268 81.8348 46.62 81.8348 46.044C81.8348 45.42 81.6308 44.916 81.2228 44.532C80.8148 44.124 80.3828 43.8 79.9268 43.56C79.6388 44.424 79.3148 45.312 78.9548 46.224C78.6188 47.136 78.1988 47.976 77.6948 48.744C77.1908 49.488 76.5548 50.1 75.7868 50.58C75.0188 51.036 74.0588 51.264 72.9068 51.264C72.5948 51.264 72.2348 51.216 71.8268 51.12C71.4428 51.024 71.1188 50.928 70.8548 50.832C70.2068 52.104 69.3548 53.148 68.2988 53.964C67.2668 54.756 66.2348 55.152 65.2028 55.152ZM65.8868 53.352C66.1988 53.352 66.5828 53.196 67.0388 52.884C67.5188 52.572 67.9868 52.164 68.4428 51.66C68.9228 51.132 69.2948 50.58 69.5588 50.004C69.0548 49.332 68.8028 48.324 68.8028 46.98C68.8028 46.692 68.8388 46.308 68.9108 45.828C69.0068 45.348 69.1268 44.856 69.2708 44.352C69.4388 43.824 69.6308 43.38 69.8468 43.02C69.3668 43.476 68.8748 43.992 68.3708 44.568C67.8908 45.12 67.4348 45.708 67.0028 46.332C66.5708 46.932 66.1868 47.544 65.8508 48.168C65.5148 48.768 65.2508 49.368 65.0588 49.968C64.8668 50.544 64.7708 51.096 64.7708 51.624C64.7708 52.272 64.8668 52.728 65.0588 52.992C65.2748 53.232 65.5508 53.352 65.8868 53.352ZM89.0741 55.692C88.2821 55.692 87.5981 55.428 87.0221 54.9C86.4221 54.372 86.1221 53.58 86.1221 52.524C86.1221 51.684 86.3141 50.772 86.6981 49.788C87.0821 48.804 87.6101 47.832 88.2821 46.872C88.9541 45.912 89.7221 45.048 90.5861 44.28C91.4501 43.488 92.3741 42.852 93.3581 42.372C94.3421 41.892 95.3261 41.652 96.3101 41.652C97.3421 41.652 98.2181 41.916 98.9381 42.444C99.6581 42.972 100.018 43.668 100.018 44.532C100.018 45.18 99.7901 45.648 99.3341 45.936C98.8781 46.224 98.3381 46.308 97.7141 46.188C97.7621 45.972 97.7981 45.756 97.8221 45.54C97.8701 45.324 97.8941 45.096 97.8941 44.856C97.8941 44.376 97.7981 43.944 97.6061 43.56C97.4141 43.176 97.0061 42.984 96.3821 42.984C95.7101 42.984 95.0261 43.212 94.3301 43.668C93.6341 44.124 92.9621 44.724 92.3141 45.468C91.6901 46.188 91.1261 46.992 90.6221 47.88C90.1181 48.744 89.7221 49.596 89.4341 50.436C89.1461 51.276 89.0021 52.032 89.0021 52.704C89.0021 53.472 89.2781 53.856 89.8301 53.856C90.3821 53.856 90.9941 53.592 91.6661 53.064C92.3381 52.512 93.0101 51.828 93.6821 51.012C94.3781 50.196 95.0381 49.368 95.6621 48.528C96.2861 47.664 96.8261 46.932 97.2821 46.332C97.3541 46.212 97.4501 46.152 97.5701 46.152C97.6661 46.176 97.8461 46.236 98.1101 46.332C98.3981 46.404 98.6621 46.524 98.9021 46.692C99.1421 46.86 99.2621 47.076 99.2621 47.34C99.2621 47.58 99.1541 47.892 98.9381 48.276C98.7461 48.636 98.5061 49.044 98.2181 49.5C97.9541 49.932 97.7141 50.376 97.4981 50.832C97.3061 51.264 97.2101 51.684 97.2101 52.092C97.2101 52.404 97.2941 52.704 97.4621 52.992C97.6301 53.256 97.9061 53.388 98.2901 53.388C98.8661 53.388 99.6701 52.968 100.702 52.128C101.758 51.264 102.826 49.812 103.906 47.772L104.59 48.456C104.014 49.752 103.318 50.904 102.502 51.912C101.71 52.896 100.87 53.664 99.9821 54.216C99.0941 54.792 98.1941 55.08 97.2821 55.08C96.2981 55.08 95.5661 54.768 95.0861 54.144C94.6061 53.52 94.3421 52.848 94.2941 52.128C94.2941 52.08 94.2941 52.044 94.2941 52.02C94.2941 51.996 94.2941 51.972 94.2941 51.948C93.3341 53.1 92.4461 54.012 91.6301 54.684C90.8381 55.356 89.9861 55.692 89.0741 55.692ZM107.906 57.132C108.026 56.772 108.374 55.944 108.95 54.648C109.55 53.376 110.342 51.672 111.326 49.536C112.334 47.376 113.522 44.82 114.89 41.868C116.258 38.916 117.782 35.592 119.462 31.896C119.558 31.704 119.63 31.5 119.678 31.284C119.75 31.068 119.786 30.876 119.786 30.708C119.786 30.468 119.714 30.276 119.57 30.132C119.426 29.988 119.15 29.916 118.742 29.916C117.734 29.916 116.906 30.228 116.258 30.852C115.634 31.452 115.166 32.196 114.854 33.084C114.566 33.972 114.422 34.848 114.422 35.712C114.422 35.928 114.434 36.18 114.458 36.468C114.482 36.756 114.518 37.08 114.566 37.44C113.99 37.44 113.51 37.272 113.126 36.936C112.766 36.576 112.49 36.144 112.298 35.64C112.106 35.112 112.01 34.62 112.01 34.164C112.01 33.396 112.226 32.652 112.658 31.932C113.114 31.212 113.702 30.564 114.422 29.988C115.142 29.388 115.934 28.92 116.798 28.584C117.686 28.248 118.562 28.08 119.426 28.08C120.314 28.08 121.07 28.332 121.694 28.836C122.318 29.316 122.798 30.204 123.134 31.5C123.47 32.772 123.638 34.608 123.638 37.008C123.638 38.568 123.578 40.152 123.458 41.76C123.362 43.344 123.254 44.832 123.134 46.224C123.014 47.616 122.954 48.804 122.954 49.788C123.434 48.372 124.022 46.872 124.718 45.288C125.438 43.68 126.206 42.096 127.022 40.536C127.838 38.952 128.642 37.464 129.434 36.072C130.226 34.68 130.934 33.468 131.558 32.436C132.206 31.38 132.698 30.6 133.034 30.096C133.37 29.568 133.67 29.172 133.934 28.908C134.198 28.644 134.558 28.512 135.014 28.512C135.35 28.512 135.878 28.644 136.598 28.908C136.382 29.364 136.13 30.096 135.842 31.104C135.554 32.088 135.242 33.24 134.906 34.56C134.546 36 134.186 37.584 133.826 39.312C133.466 41.016 133.142 42.744 132.854 44.496C132.566 46.248 132.326 47.916 132.134 49.5C131.966 51.06 131.882 52.44 131.882 53.64C131.882 54.264 131.906 54.756 131.954 55.116C132.026 55.476 132.11 55.788 132.206 56.052C132.326 56.34 132.458 56.7 132.602 57.132C131.57 57.132 130.778 56.976 130.226 56.664C129.698 56.352 129.338 55.848 129.146 55.152C128.978 54.48 128.894 53.58 128.894 52.452C128.894 49.788 129.194 46.992 129.794 44.064C130.418 41.112 131.138 38.076 131.954 34.956C131.282 35.916 130.586 37.056 129.866 38.376C129.146 39.696 128.438 41.088 127.742 42.552C127.046 44.016 126.386 45.468 125.762 46.908C125.138 48.324 124.586 49.644 124.106 50.868C123.626 52.068 123.254 53.076 122.99 53.892C122.774 53.964 122.618 54.012 122.522 54.036C122.45 54.06 122.354 54.072 122.234 54.072C121.394 54.072 120.854 53.568 120.614 52.56C120.398 51.528 120.29 50.124 120.29 48.348C120.29 47.412 120.302 46.416 120.326 45.36C120.35 44.28 120.386 43.188 120.434 42.084C120.482 40.956 120.518 39.84 120.542 38.736C120.566 37.632 120.578 36.576 120.578 35.568C120.578 35.208 120.566 34.848 120.542 34.488C120.542 34.128 120.542 33.78 120.542 33.444C118.718 37.692 117.17 41.328 115.898 44.352C114.65 47.352 113.582 49.8 112.694 51.696C111.806 53.568 110.99 54.936 110.246 55.8C109.502 56.688 108.722 57.132 107.906 57.132ZM136.946 55.692C136.154 55.692 135.47 55.428 134.894 54.9C134.294 54.372 133.994 53.58 133.994 52.524C133.994 51.684 134.186 50.772 134.57 49.788C134.954 48.804 135.482 47.832 136.154 46.872C136.826 45.912 137.594 45.048 138.458 44.28C139.322 43.488 140.246 42.852 141.23 42.372C142.214 41.892 143.198 41.652 144.182 41.652C145.214 41.652 146.09 41.916 146.81 42.444C147.53 42.972 147.89 43.668 147.89 44.532C147.89 45.18 147.662 45.648 147.206 45.936C146.75 46.224 146.21 46.308 145.586 46.188C145.634 45.972 145.67 45.756 145.694 45.54C145.742 45.324 145.766 45.096 145.766 44.856C145.766 44.376 145.67 43.944 145.478 43.56C145.286 43.176 144.878 42.984 144.254 42.984C143.582 42.984 142.898 43.212 142.202 43.668C141.506 44.124 140.834 44.724 140.186 45.468C139.562 46.188 138.998 46.992 138.494 47.88C137.99 48.744 137.594 49.596 137.306 50.436C137.018 51.276 136.874 52.032 136.874 52.704C136.874 53.472 137.15 53.856 137.702 53.856C138.254 53.856 138.866 53.592 139.538 53.064C140.21 52.512 140.882 51.828 141.554 51.012C142.25 50.196 142.91 49.368 143.534 48.528C144.158 47.664 144.698 46.932 145.154 46.332C145.226 46.212 145.322 46.152 145.442 46.152C145.538 46.176 145.718 46.236 145.982 46.332C146.27 46.404 146.534 46.524 146.774 46.692C147.014 46.86 147.134 47.076 147.134 47.34C147.134 47.58 147.026 47.892 146.81 48.276C146.618 48.636 146.378 49.044 146.09 49.5C145.826 49.932 145.586 50.376 145.37 50.832C145.178 51.264 145.082 51.684 145.082 52.092C145.082 52.404 145.166 52.704 145.334 52.992C145.502 53.256 145.778 53.388 146.162 53.388C146.738 53.388 147.542 52.968 148.574 52.128C149.63 51.264 150.698 49.812 151.778 47.772L152.462 48.456C151.886 49.752 151.19 50.904 150.374 51.912C149.582 52.896 148.742 53.664 147.854 54.216C146.966 54.792 146.066 55.08 145.154 55.08C144.17 55.08 143.438 54.768 142.958 54.144C142.478 53.52 142.214 52.848 142.166 52.128C142.166 52.08 142.166 52.044 142.166 52.02C142.166 51.996 142.166 51.972 142.166 51.948C141.206 53.1 140.318 54.012 139.502 54.684C138.71 55.356 137.858 55.692 136.946 55.692ZM155.426 54.936C154.538 54.936 153.818 54.696 153.266 54.216C152.714 53.76 152.438 53.136 152.438 52.344C152.438 51.672 152.606 50.952 152.942 50.184C153.278 49.416 153.614 48.66 153.95 47.916C154.31 47.172 154.49 46.512 154.49 45.936C154.49 45.384 154.31 44.928 153.95 44.568C153.59 44.184 153.17 43.872 152.69 43.632C152.162 44.952 151.562 46.236 150.89 47.484C150.242 48.708 149.714 49.668 149.306 50.364L148.766 49.32C149.102 48.696 149.546 47.808 150.098 46.656C150.65 45.504 151.178 44.22 151.682 42.804C151.442 42.564 151.322 42.24 151.322 41.832C151.322 41.208 151.514 40.62 151.898 40.068C152.282 39.516 152.654 39.24 153.014 39.24C153.302 39.24 153.506 39.408 153.626 39.744C153.77 40.056 153.842 40.272 153.842 40.392C153.842 40.512 153.782 40.728 153.662 41.04C153.566 41.352 153.494 41.58 153.446 41.724C153.47 41.988 153.674 42.252 154.058 42.516C154.466 42.756 154.922 43.044 155.426 43.38C155.93 43.716 156.374 44.136 156.758 44.64C157.142 45.144 157.334 45.78 157.334 46.548C157.334 47.244 157.178 47.952 156.866 48.672C156.554 49.392 156.242 50.064 155.93 50.688C155.618 51.312 155.462 51.852 155.462 52.308C155.462 52.644 155.546 52.872 155.714 52.992C155.906 53.088 156.122 53.136 156.362 53.136C156.938 53.136 157.538 52.968 158.162 52.632C158.786 52.272 159.398 51.816 159.998 51.264C160.598 50.712 161.126 50.136 161.582 49.536C162.038 48.912 162.386 48.348 162.626 47.844L163.49 48.492C163.034 49.524 162.374 50.544 161.51 51.552C160.646 52.536 159.686 53.352 158.63 54C157.574 54.624 156.506 54.936 155.426 54.936ZM163.752 56.016C162.504 56.016 161.472 55.62 160.656 54.828C159.864 54.06 159.468 52.872 159.468 51.264C159.468 50.088 159.696 48.936 160.152 47.808C160.608 46.68 161.22 45.672 161.988 44.784C162.756 43.872 163.608 43.152 164.544 42.624C165.504 42.096 166.476 41.832 167.46 41.832C168.468 41.832 169.188 42.084 169.62 42.588C170.076 43.092 170.304 43.68 170.304 44.352C170.304 45.024 170.136 45.684 169.8 46.332C169.488 46.956 169.056 47.268 168.504 47.268C168.048 47.268 167.676 47.04 167.388 46.584C167.628 46.416 167.88 46.104 168.144 45.648C168.408 45.192 168.54 44.604 168.54 43.884C168.54 43.692 168.492 43.548 168.396 43.452C168.3 43.332 168.12 43.272 167.856 43.272C167.256 43.272 166.62 43.548 165.948 44.1C165.3 44.628 164.688 45.324 164.112 46.188C163.56 47.028 163.104 47.928 162.744 48.888C162.408 49.824 162.24 50.688 162.24 51.48C162.24 52.152 162.408 52.776 162.744 53.352C163.104 53.904 163.788 54.18 164.796 54.18C165.708 54.18 166.656 53.916 167.64 53.388C168.624 52.86 169.548 52.128 170.412 51.192C171.276 50.232 171.972 49.092 172.5 47.772L173.22 48.42C172.644 49.884 171.84 51.192 170.808 52.344C169.8 53.472 168.672 54.36 167.424 55.008C166.2 55.68 164.976 56.016 163.752 56.016ZM171.528 55.692C170.736 55.692 170.052 55.428 169.476 54.9C168.876 54.372 168.576 53.58 168.576 52.524C168.576 51.684 168.768 50.772 169.152 49.788C169.536 48.804 170.064 47.832 170.736 46.872C171.408 45.912 172.176 45.048 173.04 44.28C173.904 43.488 174.828 42.852 175.812 42.372C176.796 41.892 177.78 41.652 178.764 41.652C179.796 41.652 180.672 41.916 181.392 42.444C182.112 42.972 182.472 43.668 182.472 44.532C182.472 45.18 182.244 45.648 181.788 45.936C181.332 46.224 180.792 46.308 180.168 46.188C180.216 45.972 180.252 45.756 180.276 45.54C180.324 45.324 180.348 45.096 180.348 44.856C180.348 44.376 180.252 43.944 180.06 43.56C179.868 43.176 179.46 42.984 178.836 42.984C178.164 42.984 177.48 43.212 176.784 43.668C176.088 44.124 175.416 44.724 174.768 45.468C174.144 46.188 173.58 46.992 173.076 47.88C172.572 48.744 172.176 49.596 171.888 50.436C171.6 51.276 171.456 52.032 171.456 52.704C171.456 53.472 171.732 53.856 172.284 53.856C172.836 53.856 173.448 53.592 174.12 53.064C174.792 52.512 175.464 51.828 176.136 51.012C176.832 50.196 177.492 49.368 178.116 48.528C178.74 47.664 179.28 46.932 179.736 46.332C179.808 46.212 179.904 46.152 180.024 46.152C180.12 46.176 180.3 46.236 180.564 46.332C180.852 46.404 181.116 46.524 181.356 46.692C181.596 46.86 181.716 47.076 181.716 47.34C181.716 47.58 181.608 47.892 181.392 48.276C181.2 48.636 180.96 49.044 180.672 49.5C180.408 49.932 180.168 50.376 179.952 50.832C179.76 51.264 179.664 51.684 179.664 52.092C179.664 52.404 179.748 52.704 179.916 52.992C180.084 53.256 180.36 53.388 180.744 53.388C181.32 53.388 182.124 52.968 183.156 52.128C184.212 51.264 185.28 49.812 186.36 47.772L187.044 48.456C186.468 49.752 185.772 50.904 184.956 51.912C184.164 52.896 183.324 53.664 182.436 54.216C181.548 54.792 180.648 55.08 179.736 55.08C178.752 55.08 178.02 54.768 177.54 54.144C177.06 53.52 176.796 52.848 176.748 52.128C176.748 52.08 176.748 52.044 176.748 52.02C176.748 51.996 176.748 51.972 176.748 51.948C175.788 53.1 174.9 54.012 174.084 54.684C173.292 55.356 172.44 55.692 171.528 55.692ZM190.008 54.936C189.12 54.936 188.4 54.696 187.848 54.216C187.296 53.76 187.02 53.136 187.02 52.344C187.02 51.672 187.188 50.952 187.524 50.184C187.86 49.416 188.196 48.66 188.532 47.916C188.892 47.172 189.072 46.512 189.072 45.936C189.072 45.384 188.892 44.928 188.532 44.568C188.172 44.184 187.752 43.872 187.272 43.632C186.744 44.952 186.144 46.236 185.472 47.484C184.824 48.708 184.296 49.668 183.888 50.364L183.348 49.32C183.684 48.696 184.128 47.808 184.68 46.656C185.232 45.504 185.76 44.22 186.264 42.804C186.024 42.564 185.904 42.24 185.904 41.832C185.904 41.208 186.096 40.62 186.48 40.068C186.864 39.516 187.236 39.24 187.596 39.24C187.884 39.24 188.088 39.408 188.208 39.744C188.352 40.056 188.424 40.272 188.424 40.392C188.424 40.512 188.364 40.728 188.244 41.04C188.148 41.352 188.076 41.58 188.028 41.724C188.052 41.988 188.256 42.252 188.64 42.516C189.048 42.756 189.504 43.044 190.008 43.38C190.512 43.716 190.956 44.136 191.34 44.64C191.724 45.144 191.916 45.78 191.916 46.548C191.916 47.244 191.76 47.952 191.448 48.672C191.136 49.392 190.824 50.064 190.512 50.688C190.2 51.312 190.044 51.852 190.044 52.308C190.044 52.644 190.128 52.872 190.296 52.992C190.488 53.088 190.704 53.136 190.944 53.136C191.52 53.136 192.12 52.968 192.744 52.632C193.368 52.272 193.98 51.816 194.58 51.264C195.18 50.712 195.708 50.136 196.164 49.536C196.62 48.912 196.968 48.348 197.208 47.844L198.072 48.492C197.616 49.524 196.956 50.544 196.092 51.552C195.228 52.536 194.268 53.352 193.212 54C192.156 54.624 191.088 54.936 190.008 54.936ZM203.806 49.716C203.206 49.404 202.798 49.128 202.582 48.888C202.39 48.624 202.294 48.228 202.294 47.7C202.294 46.572 202.522 45.552 202.978 44.64C203.434 43.704 203.998 42.828 204.67 42.012C205.366 41.172 206.05 40.332 206.722 39.492C207.418 38.652 207.994 37.752 208.45 36.792C208.906 35.808 209.134 34.716 209.134 33.516C209.134 32.22 208.87 31.236 208.342 30.564C207.814 29.868 207.154 29.52 206.362 29.52C205.546 29.52 204.73 29.844 203.914 30.492C203.098 31.14 202.414 32.004 201.862 33.084C201.334 34.164 201.07 35.364 201.07 36.684C201.07 37.092 201.094 37.488 201.142 37.872C201.214 38.232 201.322 38.652 201.466 39.132C200.29 38.94 199.498 38.58 199.09 38.052C198.706 37.524 198.514 36.876 198.514 36.108C198.514 34.74 198.838 33.444 199.486 32.22C200.134 30.996 201.058 30 202.258 29.232C203.458 28.464 204.862 28.08 206.47 28.08C208.102 28.08 209.41 28.512 210.394 29.376C211.378 30.216 211.87 31.44 211.87 33.048C211.87 34.104 211.678 35.052 211.294 35.892C210.91 36.708 210.418 37.476 209.818 38.196C209.242 38.892 208.618 39.6 207.946 40.32C207.298 41.016 206.686 41.784 206.11 42.624C205.558 43.44 205.114 44.388 204.778 45.468C204.538 46.284 204.382 47.004 204.31 47.628C204.262 48.228 204.094 48.924 203.806 49.716ZM202.258 54.36C201.874 54.36 201.538 54.252 201.25 54.036C200.962 53.844 200.818 53.556 200.818 53.172C200.818 52.692 201.07 52.284 201.574 51.948C202.102 51.612 202.63 51.444 203.158 51.444C203.518 51.444 203.818 51.528 204.058 51.696C204.298 51.864 204.418 52.128 204.418 52.488C204.418 52.944 204.19 53.376 203.734 53.784C203.302 54.168 202.81 54.36 202.258 54.36Z" fill="#F7ECE1"/>
</svg>
